<svg width="96" height="96" viewBox="0 0 96 96" fill="none" xmlns="http://www.w3.org/2000/svg">
<path d="M90 49.9688C90 44.927 87.4175 40.2727 83.2931 37.6595C84.2039 35.7169 84.6795 33.5873 84.6795 31.4098C84.6795 25.1447 77.1215 20.068 72.1726 17.4162C71.6441 9.92738 65.5252 4 58.0795 4C53.8684 4 50.0161 5.74085 47.3825 8.74762C44.7256 5.74119 40.9553 4 36.9205 4C32.0222 4 27.3874 6.68935 24.8442 10.9699C23.6701 12.946 22.9694 15.2053 22.8218 17.5134C22.8209 17.5268 22.8191 17.5401 22.8183 17.5535C22.52 17.709 22.1582 17.9037 21.7164 18.1479C20.6056 18.7616 18.9279 19.7553 17.2437 21.0036C12.6498 24.408 10.3205 27.909 10.3205 31.4098C10.3205 33.5873 10.7959 35.7169 11.7067 37.6595C7.58254 40.2727 5 44.927 5 49.9688C5 54.8411 7.3629 59.3131 11.2586 61.9843C10.6422 63.6326 10.3205 65.3972 10.3205 67.1659C10.3205 72.3934 13.0182 77.1301 17.4118 79.7114C19.2584 86.2988 26.6088 91 35.2578 91C39.7328 91 44.1134 89.6557 47.4907 87.2853C50.847 89.6865 55.1429 91 59.7422 91C68.3912 91 75.7417 86.2988 77.5882 79.7114C81.9819 77.1303 84.6795 72.3934 84.6795 67.1659C84.6795 65.3974 84.3578 63.6327 83.7414 61.9843C87.6371 59.3131 90 54.8413 90 49.9688ZM35.2578 87.6016C27.9447 87.6016 21.586 83.5666 20.467 78.2158C20.3619 77.7131 20.04 77.2861 19.5918 77.0545C16.9091 75.6686 14.9706 73.271 14.1206 70.4405C15.5081 71.1482 17.0029 71.5083 18.562 71.5083H18.567C20.8258 71.5083 23.1442 70.661 24.8867 69.1943C25.5727 68.6169 25.6744 67.4976 25.1166 66.8018C24.5561 66.1027 23.4604 65.996 22.7803 66.5668C21.5767 67.5761 20.119 68.1096 18.5635 68.1096C16.7019 68.1096 14.9636 67.3275 13.706 65.9481C13.8493 64.598 14.2318 63.301 14.8505 62.0791C15.2717 61.2474 14.9556 60.2237 14.1441 59.7906C10.5517 57.8736 8.32031 54.11 8.32031 49.9688C8.32031 45.6378 10.8112 41.6803 14.6661 39.8868C15.1057 39.6822 15.4367 39.2919 15.5724 38.8175C15.708 38.3431 15.6351 37.8316 15.3728 37.4167C14.2398 35.625 13.6408 33.5477 13.6408 31.4098C13.6408 27.3813 19.2885 23.3602 23.0587 21.2544C23.741 24.7877 25.6998 27.9923 28.5843 30.1535C29.2856 30.6789 30.3793 30.5206 30.9047 29.7862C31.4463 29.0288 31.2856 27.9656 30.5457 27.4113C26.3582 24.2739 24.9277 18.2638 27.2544 13.518C29.0718 9.81048 32.8654 7.39844 36.9205 7.39844C40.4438 7.39844 43.7047 9.13487 45.7359 12.0674L45.7361 12.2388C45.7294 13.3591 45.7265 15.8449 45.7301 21.4629H36.4947C35.8233 21.4629 35.218 21.8768 34.961 22.5116C34.704 23.1465 34.846 23.8773 35.3204 24.3633C37.9151 27.0203 37.9151 31.3435 35.3206 34.0006C32.8036 36.5783 28.4216 36.5705 25.9122 34.0006C25.264 33.3368 24.213 33.3365 23.5644 34C22.9159 34.6634 22.9156 35.7394 23.5639 36.4031C23.8202 36.6656 24.0891 36.9106 24.3672 37.1405L20.1639 41.5588C17.9044 43.8815 17.9071 47.6534 20.1718 49.9727C22.3925 52.2469 26.1882 52.2367 28.3989 49.9729C29.047 49.309 29.0467 48.2332 28.3982 47.5698C27.7495 46.9065 26.6987 46.9066 26.0506 47.5702C25.1364 48.5063 23.4653 48.5381 22.5205 47.5705C21.5466 46.5732 21.5466 44.9505 22.5205 43.9531C22.5254 43.9478 22.5306 43.9425 22.5356 43.9372L27.3801 38.8449C27.4365 38.7856 29.1168 39.2819 29.3279 39.3099C32.3818 39.7143 35.4941 38.6302 37.6689 36.4031C40.7115 33.2872 41.373 28.6422 39.6538 24.8613H45.7329C45.7367 29.2072 45.7436 34.9565 45.754 42.566H41.6895V42.1366C41.6895 41.1981 40.9462 40.4374 40.0293 40.4374C39.1124 40.4374 38.3691 41.1981 38.3691 42.1366V46.3933C38.3691 47.3318 39.1124 48.0925 40.0293 48.0925C40.9462 48.0925 41.6895 47.3318 41.6895 46.3933V45.9646H45.7587C45.7598 46.7681 45.7708 54.3343 45.7753 57.2092H40.0293C39.7484 56.4163 39.2657 55.6726 38.6458 55.0377C37.5471 53.9125 37.2192 53.293 35.6652 53.293C34.1113 53.293 32.6504 53.9125 31.5517 55.0377C30.9036 55.7016 30.9039 56.7774 31.5524 57.4409C32.201 58.1041 32.685 56.7729 33.3333 56.1094C35.5379 53.8528 40.491 58.751 38.2031 61.0938C37.555 61.7575 36.7822 62.7974 37.4307 63.4608C38.056 64.1005 39.1368 64.1173 39.7784 63.4603C40.573 62.6465 41.0881 61.6538 41.3257 60.6078H45.7806C45.7871 64.5216 45.7935 68.2266 45.8 71.5164H32.7751C32.3346 71.5164 31.9123 71.6955 31.6008 72.0145C29.3334 74.3364 29.3334 78.1145 31.6007 80.4366C33.804 82.6934 37.6365 82.6808 39.8276 80.4368C40.4757 79.7729 40.4755 78.6971 39.8271 78.0338C39.1785 77.3704 38.1278 77.3706 37.4796 78.0339C36.5461 78.9896 34.877 78.9843 33.9493 78.0343C33.1247 77.1898 32.9982 75.8968 33.5703 74.9149H45.807C45.8131 77.8168 45.83 83.7931 45.8327 84.3321C42.9786 86.4174 39.173 87.6016 35.2578 87.6016ZM80.856 59.7908C80.0445 60.2239 79.7284 61.2475 80.1496 62.0793C80.9521 63.6645 81.3592 65.3759 81.3592 67.1661C81.3592 71.3693 79.079 75.1583 75.4084 77.0547C74.96 77.2863 74.6382 77.7133 74.5332 78.2159C73.414 83.5666 67.0553 87.6016 59.7422 87.6016C55.7749 87.6016 51.966 86.4179 49.159 84.334L49.1455 74.9147H56.3542C56.9581 77.5435 58.0583 78.3125 60.8073 78.3125C64.0147 78.3125 66.6242 76.8351 66.6242 73.5511C66.6242 70.267 64.0147 67.5951 60.8073 67.5951C58.2977 67.5951 57.3622 69.2311 56.5484 71.5163H49.1407L49.1253 60.6076H64.544C65.2602 63.0662 67.4875 64.8643 70.1183 64.8643C73.3257 64.8643 75.9352 62.1925 75.9352 58.9084C75.9352 55.6243 73.3257 52.9525 70.1183 52.9525C67.4875 52.9525 65.2602 54.7506 64.544 57.2092H49.1203L49.1044 45.9646H52.739C53.4552 48.4232 55.6824 50.2213 58.3133 50.2213C61.5207 50.2213 64.1301 47.5494 64.1301 44.2654C64.1301 40.9813 61.5207 38.3094 58.3133 38.3094C55.6824 38.3094 53.4552 40.1076 52.739 42.5662H49.0996L49.0743 24.8615H55.026C55.7646 27.2825 56.8724 27.5625 59.4772 27.5625C62.6846 27.5625 64.1301 26.3729 64.1301 23.0889C64.1301 19.8048 62.6846 17.1329 59.4772 17.1329C56.8203 17.1329 54.5754 18.9669 53.8825 21.463H49.0695L49.0561 12.0524C51.0265 9.12909 54.3641 7.39844 58.0795 7.39844C64.04 7.39844 68.8893 12.3649 68.8893 18.4694C68.8893 19.5181 69.6958 19.9363 70.0401 20.1149C77.1276 23.7894 81.3591 28.0118 81.3592 31.4098C81.3594 35.6412 78.651 40.6216 74.1189 40.7713C73.6757 40.7849 73.264 40.9752 72.9602 41.3065C72.6563 41.6362 72.497 42.0695 72.5119 42.5232C72.5252 42.9667 72.7045 43.3813 73.0166 43.6905C73.3271 43.9998 73.7371 44.1697 74.1704 44.1697H74.1754C74.1903 44.1697 74.2068 44.1697 74.2217 44.168C76.997 43.8479 79.6938 42.7757 81.5325 40.5431C84.6966 42.541 86.6797 46.1056 86.6797 49.9688C86.6797 54.11 84.4483 57.8736 80.856 59.7908ZM58.3108 73.5511C58.3108 72.1409 59.4307 70.9936 60.8073 70.9936C62.1839 70.9936 64.3229 72.1409 64.3229 73.5511C64.3229 74.9612 62.1839 76.1086 60.8073 76.1086C59.4307 76.1086 58.3108 74.9612 58.3108 73.5511ZM67.6218 58.9082C67.6218 57.498 68.7417 56.3507 70.1183 56.3507C71.4949 56.3507 72.6148 57.498 72.6148 58.9082C72.6148 60.3184 71.4949 61.4657 70.1183 61.4657C68.7417 61.4657 67.6218 60.3186 67.6218 58.9082ZM55.8169 44.2652C55.8169 42.855 56.9368 41.7077 58.3134 41.7077C59.69 41.7077 60.81 42.855 60.81 44.2652C60.81 45.6754 59.69 46.8227 58.3134 46.8227C56.9368 46.8227 55.8169 45.6754 55.8169 44.2652ZM56.9807 23.0887C56.9807 21.6785 58.1006 18.9531 59.4772 18.9531C60.8538 18.9531 61.9737 21.6785 61.9737 23.0887C61.9737 24.4989 60.8538 25.6462 59.4772 25.6462C58.1006 25.6462 56.9807 24.4989 56.9807 23.0887Z" fill="white"/>
<path d="M26.9875 60.3341C26.5259 60.2934 26.0677 60.4531 25.7257 60.7725C25.4169 61.0614 25.2277 61.4556 25.1928 61.8821C25.1546 62.3358 25.2908 62.7759 25.578 63.1226C25.8635 63.4692 26.2636 63.6816 26.7052 63.7207C26.7534 63.7241 26.7999 63.7258 26.848 63.7258C27.263 63.7258 27.6598 63.5678 27.967 63.2806C28.2757 62.9917 28.465 62.5975 28.5015 62.171C28.5015 62.1693 28.5015 62.1693 28.4999 62.1693C28.5762 61.2364 27.8989 60.4123 26.9875 60.3341Z" fill="#68C0F1"/>
<path d="M69.2947 38.8664C69.2947 38.8664 69.2947 38.8664 69.2931 38.8647C68.9826 38.5571 68.5726 38.3889 68.1409 38.3889C67.686 38.3889 67.261 38.5724 66.9456 38.9072C66.6385 39.2334 66.4725 39.6633 66.4808 40.117C66.4874 40.5707 66.6667 40.9938 66.9855 41.3082C66.9855 41.3082 66.9855 41.3099 66.9871 41.3099C67.2976 41.6174 67.7076 41.7874 68.1393 41.7874C68.5941 41.7874 69.0191 41.6021 69.3346 41.2674C69.9687 40.5945 69.9521 39.5189 69.2947 38.8664Z" fill="#68C0F1"/>
<path d="M64 22.5C64 24.2727 62.3765 26 60 26C57.6235 26 56 24.2727 56 22.5C56 20.7273 57.6235 19 60 19C62.3765 19 64 20.7273 64 22.5Z" stroke="#68C0F1" stroke-width="4"/>
<path d="M65 73C65 75.3765 63.2727 77 61.5 77C59.7273 77 58 75.3765 58 73C58 70.6235 59.7273 69 61.5 69C63.2727 69 65 70.6235 65 73Z" stroke="#68C0F1" stroke-width="4"/>
<path d="M34.2727 65C36.8835 65 39 62.7614 39 60C39 57.2386 36.8835 55 34.2727 55C33.0026 55 31.8494 55.5298 31 56.392" stroke="#68C0F1" stroke-width="4" stroke-linecap="round"/>
</svg>
