<svg width="98" height="96" viewBox="0 0 98 96" fill="none" xmlns="http://www.w3.org/2000/svg">
<path d="M48.1357 48C48.1357 57.4905 46.7036 65.9939 44.4533 72.0524C43.3253 75.0892 42.0301 77.4073 40.6931 78.9298C39.353 80.4559 38.1456 81 37.1357 81C36.1258 81 34.9184 80.4559 33.5784 78.9298C32.2414 77.4073 30.9462 75.0892 29.8182 72.0524C27.5679 65.9939 26.1357 57.4905 26.1357 48C26.1357 38.5095 27.5679 30.0061 29.8182 23.9476C30.9462 20.9107 32.2414 18.5927 33.5784 17.0702C34.9184 15.5441 36.1258 15 37.1357 15C38.1456 15 39.353 15.5441 40.6931 17.0702C42.0301 18.5927 43.3253 20.9107 44.4533 23.9476C46.7036 30.0061 48.1357 38.5095 48.1357 48Z" stroke="white" stroke-width="4"/>
<path d="M42.5527 38.5552C50.5456 43.6721 56.935 49.4631 60.8242 54.6248C62.7736 57.2121 64.0276 59.5528 64.589 61.4997C65.1517 63.4511 64.959 64.7613 64.4145 65.6119C63.87 66.4624 62.7607 67.1859 60.753 67.4917C58.7499 67.7969 56.0993 67.6378 52.9334 66.9504C46.6177 65.5791 38.684 62.2005 30.6911 57.0836C22.6982 51.9667 16.3088 46.1758 12.4196 41.014C10.4701 38.4267 9.21615 36.086 8.65477 34.1391C8.09208 32.1877 8.28479 30.8775 8.82929 30.0269C9.37379 29.1764 10.4831 28.4529 12.4908 28.1471C14.4939 27.8419 17.1445 28.001 20.3104 28.6884C26.6261 30.0597 34.5598 33.4383 42.5527 38.5552Z" stroke="white" stroke-width="4"/>
<path d="M30.6488 38.7799C38.6694 33.7065 46.6214 30.3712 52.9445 29.0342C56.114 28.364 58.7655 28.2194 60.7669 28.5355C62.7729 28.8522 63.8782 29.5817 64.4181 30.4352C64.958 31.2887 65.1436 32.6 64.5703 34.5483C63.9983 36.4921 62.7316 38.8259 60.7681 41.4026C56.8509 46.5431 50.4301 52.2992 42.4095 57.3725C34.3889 62.4459 26.4369 65.7813 20.1138 67.1182C16.9442 67.7884 14.2928 67.933 12.2914 67.617C10.2853 67.3002 9.18003 66.5707 8.64017 65.7172C8.1003 64.8637 7.91471 63.5525 8.48801 61.6042C9.05998 59.6604 10.3267 57.3266 12.2902 54.7498C16.2074 49.6094 22.6282 43.8533 30.6488 38.7799Z" stroke="white" stroke-width="4"/>
<circle cx="36.6357" cy="48.5" r="4.5" stroke="#68C0F1" stroke-width="4"/>
<path d="M37.1357 14V12C37.1357 10.3431 38.4789 9 40.1357 9H78.6357C80.2926 9 81.6357 10.3431 81.6357 12V23M37.1357 82V84C37.1357 85.6569 38.4789 87 40.1357 87H78.6357C80.2926 87 81.6357 85.6569 81.6357 84V72.5" stroke="white" stroke-width="4"/>
<circle cx="81.1357" cy="27" r="3" stroke="white" stroke-width="4"/>
<circle cx="81.1357" cy="69" r="3" stroke="white" stroke-width="4"/>
<path d="M91.6357 40C91.6357 40.4481 91.1903 41.4406 89.1091 42.4396C87.172 43.3694 84.3554 44 81.1357 44C77.9162 44 75.2438 43.3695 73.4528 42.4596C71.5737 41.5048 71.1357 40.5317 71.1357 40C71.1357 39.4092 71.6488 38.3149 73.5328 37.2475C75.3223 36.2336 77.9713 35.5 81.1357 35.5C84.3022 35.5 87.0955 36.2348 89.0308 37.2707C91.1083 38.3827 91.6357 39.4902 91.6357 40Z" stroke="#68C0F1" stroke-width="4"/>
<path d="M91.5 56C91.5 58.7614 86.6542 61 80.7674 61C74.8807 61 71 58.7614 71 56" stroke="#68C0F1" stroke-width="4"/>
<path d="M91.5 48C91.5 50.7614 86.9892 53 80.8081 53C74.627 53 71 50.7614 71 48" stroke="#68C0F1" stroke-width="4"/>
<path d="M71 40V56.5M91.5 40V56.5" stroke="#68C0F1" stroke-width="4"/>
</svg>
