<svg width="96" height="96" viewBox="0 0 96 96" fill="none" xmlns="http://www.w3.org/2000/svg">
<path d="M77.2444 41.4489C76.7996 42.0827 76.3779 42.7063 76 43.2776C75.6221 42.7063 75.2004 42.0827 74.7556 41.4489C73.9457 40.295 73.0355 39.073 72.1586 38.0639C71.7207 37.5599 71.2664 37.0803 70.8163 36.68C70.3933 36.3039 69.8537 35.8877 69.2436 35.6434C62.5619 32.9672 58 27.1638 58 19.7895C58 9.98452 66.0389 2 76 2C85.9611 2 94 9.98452 94 19.7895C94 27.1638 89.4381 32.9672 82.7564 35.6434C82.1463 35.8877 81.6067 36.3039 81.1837 36.68C80.7336 37.0803 80.2793 37.5599 79.8414 38.0639C78.9645 39.073 78.0543 40.295 77.2444 41.4489Z" stroke="#68C0F1" stroke-width="4"/>
<path d="M0 46H14V50H0V46Z" fill="white"/>
<path d="M25 46H42V50H25V46Z" fill="white"/>
<path d="M54 46H71V50H54V46Z" fill="white"/>
<path d="M82 46H96V50H82V46Z" fill="white"/>
<path d="M75 11V21H84" stroke="#68C0F1" stroke-width="4" stroke-linecap="round"/>
<path d="M49.2444 54.5511C48.7996 53.9173 48.3779 53.2937 48 52.7224C47.6221 53.2937 47.2004 53.9173 46.7556 54.5511C45.9457 55.705 45.0355 56.927 44.1586 57.9361C43.7207 58.4401 43.2664 58.9197 42.8163 59.32C42.3933 59.6961 41.8537 60.1123 41.2436 60.3566C34.5619 63.0328 30 68.8362 30 76.2105C30 86.0155 38.0389 94 48 94C57.9611 94 66 86.0155 66 76.2105C66 68.8362 61.4381 63.0328 54.7564 60.3566C54.1463 60.1123 53.6067 59.6961 53.1837 59.32C52.7336 58.9197 52.2793 58.4401 51.8414 57.9361C50.9645 56.927 50.0543 55.705 49.2444 54.5511Z" stroke="white" stroke-width="4"/>
<path d="M21.2444 41.4489C20.7996 42.0827 20.3779 42.7063 20 43.2776C19.6221 42.7063 19.2004 42.0827 18.7556 41.4489C17.9457 40.295 17.0355 39.073 16.1586 38.0639C15.7207 37.5599 15.2664 37.0803 14.8163 36.68C14.3933 36.3039 13.8537 35.8877 13.2436 35.6434C6.56195 32.9672 2 27.1638 2 19.7895C2 9.98452 10.0389 2 20 2C29.9611 2 38 9.98452 38 19.7895C38 27.1638 33.4381 32.9672 26.7564 35.6434C26.1463 35.8877 25.6067 36.3039 25.1837 36.68C24.7336 37.0803 24.2793 37.5599 23.8414 38.0639C22.9645 39.073 22.0543 40.295 21.2444 41.4489Z" stroke="white" stroke-width="4"/>
<path d="M19 11V21H28" stroke="white" stroke-width="4" stroke-linecap="round"/>
<path d="M47 85V75H56" stroke="white" stroke-width="4" stroke-linecap="round"/>
</svg>
