<svg width="96" height="96" viewBox="0 0 96 96" fill="none" xmlns="http://www.w3.org/2000/svg">
<g clip-path="url(#clip0)">
<path d="M47.0872 33.9676C44.5224 32.5921 41.3176 33.5598 39.9429 36.1237L35.8779 43.7041L30.4321 40.7838L29.6941 42.1604L29.6124 42.3129L24.1651 39.3916L22.5252 42.4492L17.0797 39.5289L7.832 56.774L6.79456 67.3904L2 75.1499L4.41013 76.6392L9.55006 68.3206L10.5965 57.6138L18.2377 43.3651L21.1867 44.9465L18.5767 49.8134L21.0734 51.1522L23.6833 46.2852L25.3231 43.2277L28.2734 44.8098L24.0238 52.7347L26.5205 54.0734L30.7702 46.1487L30.7704 46.1489L31.5901 44.6199L34.5391 46.2012L29.4697 55.6546L31.9664 56.9934L37.0357 47.54H37.0359L42.4398 37.4624C43.0764 36.2752 44.5612 35.8274 45.7486 36.4642C46.9361 37.1009 47.384 38.585 46.7472 39.7722L35.7678 60.2459L41.6729 63.4126L37.2057 71.7434L27.1077 77.5246L13.1233 101.666L15.5748 103.086L29.1774 79.6047L39.3187 73.7988L45.5088 62.2546L39.6037 59.0879L49.2436 41.1114C50.6186 38.5473 49.6512 35.3427 47.0872 33.9676Z" fill="white"/>
<path d="M4 50.1429V9C4 6.23858 6.23858 4 9 4H87C89.7614 4 92 6.23858 92 9V67C92 69.7614 89.7614 72 87 72H48" stroke="white" stroke-width="4"/>
<path d="M49.346 47.5717C55.6893 45.6519 59.2752 38.9533 57.3553 32.6101C55.4355 26.2668 48.7369 22.6809 42.3937 24.6008C36.0504 26.5206 32.4645 33.2191 34.3844 39.5624" stroke="#68C0F1" stroke-width="4"/>
<path d="M48.9085 55.114C59.3807 53.4418 66.5086 43.5603 64.8292 33.0431C63.1498 22.5259 53.299 15.3556 42.8268 17.0278C32.3546 18.7001 25.2267 28.5816 26.9061 39.0988" stroke="#68C0F1" stroke-dasharray="4 4"/>
<path d="M41.1818 80.36V80.36C41.1818 82.0252 40.4108 83.5965 39.0938 84.6154L36.5455 86.587C35.5707 87.3411 35 88.5041 35 89.7366V94H63V89.7366C63 88.5041 62.4293 87.3411 61.4545 86.587V86.587C58.5302 84.3245 56.8182 80.8355 56.8182 77.1381V72H49" stroke="white" stroke-width="4"/>
</g>
<defs>
<clipPath id="clip0">
<rect width="96" height="96" fill="white"/>
</clipPath>
</defs>
</svg>
