<svg width="96" height="96" viewBox="0 0 96 96" fill="none" xmlns="http://www.w3.org/2000/svg">
<path d="M47.998 3.75C46.9627 3.75 46.123 4.58944 46.123 5.625V16.7799C46.123 17.8155 46.9627 18.6549 47.998 18.6549C49.0334 18.6549 49.873 17.8155 49.873 16.7799V5.625C49.873 4.58944 49.0334 3.75 47.998 3.75Z" fill="#68C0F1"/>
<path d="M37.373 19.759L32.8868 15.2768C32.1539 14.5448 30.967 14.5454 30.235 15.2779C29.5032 16.0105 29.5038 17.1975 30.2362 17.9295L34.7225 22.4117C35.0887 22.7775 35.5683 22.9604 36.0477 22.9604C36.5279 22.9604 37.0079 22.777 37.3741 22.4106C38.1059 21.678 38.1053 20.491 37.373 19.759Z" fill="#68C0F1"/>
<path d="M65.7637 15.281C65.0311 14.5489 63.8439 14.5496 63.1119 15.282L58.3425 20.0552C57.6106 20.7877 57.6112 21.9748 58.3436 22.7068C58.7098 23.0728 59.1896 23.2556 59.669 23.2556C60.1492 23.2556 60.6292 23.0722 60.9954 22.7059L65.7648 17.9327C66.4966 17.2001 66.496 16.013 65.7637 15.281Z" fill="#68C0F1"/>
<path d="M83.7188 53.2499H82.2056C83.4405 51.6402 84.1768 49.6289 84.1768 47.4481V44.8019C84.1768 39.5349 79.8919 35.2499 74.625 35.2499C69.3581 35.2499 65.0732 39.5349 65.0732 44.8017V46.8588L50.9674 32.7528C50.1846 31.9702 49.0333 31.7189 48.0002 32.092C46.9674 31.7189 45.8158 31.9702 45.0328 32.753L30.9272 46.8588V44.8017C30.9268 39.5349 26.6419 35.2499 21.375 35.2499C16.1081 35.2499 11.8232 39.5349 11.8232 44.8017V47.4479C11.8232 49.6289 12.5595 51.64 13.7944 53.2497H12.2812C5.50931 53.2499 0 58.7592 0 65.5312V90.3749C0 91.4105 0.839625 92.2499 1.875 92.2499H9.79688C9.98438 92.2499 10.1651 92.2216 10.3359 92.1704C10.5068 92.2216 10.6875 92.2499 10.875 92.2499H31.875C32.9104 92.2499 33.75 91.4105 33.75 90.3749V68C33.75 66.9644 32.9104 66.125 31.875 66.125C30.8396 66.125 30 66.9644 30 68V88.4999H12.75V67.1349C12.75 66.0993 11.9104 65.2599 10.875 65.2599C9.83963 65.2599 9 66.0993 9 67.1349V88.4999H3.75V65.5312C3.75 60.827 7.57706 56.9999 12.2812 56.9999H25.3125C25.8285 56.9999 26.2958 56.7912 26.6348 56.4541L26.6385 56.4509L46.1139 36.9753C45.9863 40.8693 44.775 44.6199 42.5914 47.863L30.3199 66.0877C30.1116 66.3972 30.0002 66.7619 30.0002 67.1349V69.1874C30.0002 70.223 30.8398 71.0624 31.8752 71.0624C32.9106 71.0624 33.7502 70.223 33.7502 69.1874V67.7071L45.702 49.9572C46.6151 48.601 47.3809 47.1682 48.0002 45.6807C48.6195 47.1682 49.3851 48.601 50.2984 49.9572L62.25 67.7071V90.3749C62.25 91.4105 63.0896 92.2499 64.125 92.2499H85.125C85.3125 92.2499 85.4932 92.2216 85.6641 92.1704C85.8349 92.2216 86.0156 92.2499 86.2031 92.2499H94.125C95.1604 92.2499 96 91.4105 96 90.3749V65.5312C96 58.7592 90.4907 53.2499 83.7188 53.2499ZM27.1768 47.4479C27.1768 50.6472 24.5743 53.2499 21.375 53.2499C18.1757 53.2499 15.5732 50.6472 15.5732 47.4481V44.8019C15.5732 41.6026 18.1759 38.9999 21.375 38.9999C24.5741 38.9999 27.1768 41.6026 27.1768 44.8017V47.4479ZM68.8232 44.8017C68.8232 41.6026 71.4259 38.9999 74.625 38.9999C77.8241 38.9999 80.4268 41.6026 80.4268 44.8017V47.4479C80.4268 50.6472 77.8243 53.2499 74.625 53.2499C71.4257 53.2499 68.8232 50.6472 68.8232 47.4481V44.8017ZM92.25 88.4999H87V74.6249C87 73.5893 86.1604 72.7499 85.125 72.7499C84.0896 72.7499 83.25 73.5893 83.25 74.6249V88.4999H66V67.1349C66 66.7617 65.8886 66.397 65.6803 66.0877L53.4088 47.8632C51.2252 44.62 50.0139 40.8695 49.8862 36.9755L69.3617 56.4509C69.3864 56.4757 69.4097 56.4965 69.4322 56.515C69.7646 56.8156 70.2041 57.0003 70.6875 57.0003H83.7188C88.4229 57.0003 92.25 60.8274 92.25 65.5315V88.4999Z" fill="white"/>
</svg>
